<svg width="24" height="24" viewBox="0 0 24 24" fill="none" xmlns="http://www.w3.org/2000/svg">
<rect width="24" height="24" rx="12" fill="#A0251A"/>
<path d="M15.599 18.3C14.9021 18.1473 14.3674 17.7973 13.9949 17.25C13.6345 16.7027 13.4542 16.0027 13.4542 15.15V14.2718H15.3287V15.2836C15.3287 16.06 15.6711 16.4482 16.356 16.4482C17.0409 16.4482 17.3834 16.0473 17.3834 15.2455C17.3834 14.7491 17.2632 14.3036 17.0229 13.9091C16.7826 13.5018 16.338 13.0309 15.6891 12.4964C14.8841 11.8218 14.3194 11.1918 13.9949 10.6064C13.6705 10.0209 13.5083 9.3591 13.5083 8.62092C13.5083 7.79365 13.6825 7.11274 14.031 6.57819C14.3914 6.04365 14.9141 5.69365 15.599 5.52819V4.36365H17.2212V5.52819C17.9181 5.68092 18.4468 6.03092 18.8072 6.57819C19.1677 7.11274 19.3479 7.80638 19.3479 8.6591V9.04092H17.4735V8.52547C17.4735 7.73638 17.143 7.34183 16.4822 7.34183C15.8213 7.34183 15.4909 7.72365 15.4909 8.48728C15.4909 8.94547 15.611 9.37183 15.8514 9.76638C16.0917 10.1482 16.5363 10.6127 17.1851 11.16C17.9902 11.8473 18.5549 12.49 18.8793 13.0882C19.2037 13.6736 19.366 14.3482 19.366 15.1118C19.366 15.9773 19.1797 16.69 18.8072 17.25C18.4468 17.7973 17.9181 18.1473 17.2212 18.3V19.6364H15.599V18.3Z" fill="white"/>
<path d="M8.546 18.6191C7.53689 18.6191 6.74321 18.4351 6.16495 18.0671C5.59804 17.6991 5.20119 17.1996 4.97443 16.5687C4.74766 15.9273 4.63428 15.1913 4.63428 14.3606V9.80245C4.63428 8.92973 4.74766 8.17266 4.97443 7.53126C5.20119 6.88986 5.59804 6.39566 6.16495 6.04868C6.74321 5.70169 7.53689 5.52819 8.546 5.52819C9.49842 5.52819 10.2411 5.68066 10.774 5.98559C11.3182 6.28 11.7037 6.70585 11.9305 7.26313C12.1573 7.82042 12.2706 8.46708 12.2706 9.20311V10.2756H9.85558V9.17157C9.85558 8.81407 9.8329 8.48811 9.78755 8.19369C9.75353 7.89928 9.64582 7.66795 9.4644 7.49972C9.29433 7.32097 8.99386 7.23159 8.56301 7.23159C8.13215 7.23159 7.81468 7.32622 7.61059 7.51549C7.41784 7.69424 7.29312 7.94134 7.23642 8.25678C7.17973 8.56171 7.15139 8.9087 7.15139 9.29775V14.8496C7.15139 15.3122 7.19107 15.696 7.27044 16.0009C7.34981 16.2953 7.49154 16.5214 7.69563 16.6791C7.91105 16.8263 8.20018 16.8999 8.56301 16.8999C8.98253 16.8999 9.27732 16.8106 9.4474 16.6318C9.62881 16.4425 9.74219 16.1954 9.78755 15.8905C9.8329 15.5856 9.85558 15.2439 9.85558 14.8653V13.714H12.2706V14.7391C12.2706 15.4962 12.1629 16.1692 11.9475 16.758C11.7321 17.3363 11.3522 17.7937 10.808 18.1302C10.2751 18.4561 9.5211 18.6191 8.546 18.6191Z" fill="white"/>
</svg>
