<svg width="24" height="24" viewBox="0 0 24 24" fill="none" xmlns="http://www.w3.org/2000/svg">
<g clip-path="url('#clip0_1479_161')">
<path d="M12 24.0001C18.6274 24.0001 24 18.6275 24 12.0001C24 5.3727 18.6274 0.00012207 12 0.00012207C5.37258 0.00012207 0 5.3727 0 12.0001C0 18.6275 5.37258 24.0001 12 24.0001Z" fill="#26A17B"></path>
<path d="M13.1399 12.0942V12.0925C13.0692 12.0976 12.7045 12.1194 11.8929 12.1194C11.244 12.1194 10.7889 12.1009 10.6279 12.0925V12.0942C8.13243 11.9813 6.27101 11.5368 6.27101 11.0031C6.27101 10.4711 8.13405 10.0249 10.6279 9.91202V11.6514C10.7906 11.6632 11.2588 11.6917 11.9045 11.6917C12.6799 11.6917 13.0676 11.6581 13.1399 11.6514V9.91377C15.6305 10.0282 17.4869 10.4728 17.4869 11.0048C17.4869 11.5368 15.6288 11.9813 13.1399 12.0959V12.0942ZM13.1399 9.73355V8.17777H16.6146V5.80542H7.15485V8.17777H10.6296V9.73355C7.80546 9.86657 5.68286 10.4391 5.68286 11.1261C5.68286 11.813 7.80709 12.3855 10.6296 12.5202V17.5074H13.1415V12.5202C15.9607 12.3872 18.08 11.8146 18.08 11.1277C18.08 10.4424 15.9607 9.86824 13.1415 9.7353" fill="white"></path>
</g>
<defs>
<clipPath id="clip0_1479_161">
<rect width="24" height="24" fill="white"></rect>
</clipPath>
</defs>
</svg>
