<svg width="24" height="24" viewBox="0 0 24 24" fill="none" xmlns="http://www.w3.org/2000/svg">
<rect width="24" height="24" rx="12" fill="#FFB500"></rect>
<path d="M12.3492 20.7273C11.0193 20.7273 10.0136 20.3636 9.33206 19.6363C8.66712 18.8929 8.33466 17.8343 8.33466 16.4606V13.6969H7.63647V12.3636H8.33466V11.0303H7.63647V9.69695H8.33466V7.53937C8.33466 6.16563 8.66712 5.11513 9.33206 4.38786C10.0136 3.64442 11.0193 3.27271 12.3492 3.27271C13.6791 3.27271 14.6765 3.64442 15.3414 4.38786C16.023 5.11513 16.3637 6.16563 16.3637 7.53937V8.33937H13.7705V7.36968C13.7705 6.7717 13.6541 6.34341 13.4214 6.08483C13.2053 5.82624 12.8728 5.69695 12.424 5.69695C11.9752 5.69695 11.6344 5.82624 11.4017 6.08483C11.1856 6.34341 11.0775 6.7717 11.0775 7.36968V9.69695H14.9175V11.0303H11.0775V12.3636H14.9175V13.6969H11.0775V16.6545C11.0775 17.2363 11.1856 17.6565 11.4017 17.9151C11.6344 18.1737 11.9752 18.303 12.424 18.303C12.8728 18.303 13.2053 18.1737 13.4214 17.9151C13.6541 17.6565 13.7705 17.2363 13.7705 16.6545V15.0545H16.3637V16.4606C16.3637 17.8343 16.023 18.8929 15.3414 19.6363C14.6765 20.3636 13.6791 20.7273 12.3492 20.7273Z" fill="white"></path>
</svg>
