<svg width="29" height="30" viewBox="0 0 29 30" fill="none" xmlns="http://www.w3.org/2000/svg">
<g clip-path="url('#clip0_2372_98')">
<path d="M5.93488 16.8182C6.01273 16.452 6.3678 16.2171 6.72794 16.2937L12.2708 17.4718C12.6309 17.5484 12.8598 17.9074 12.7819 18.2736L11.5838 23.9104C11.5059 24.2766 11.1509 24.5115 10.7907 24.4349L6.55209 23.534C5.47166 23.3043 4.78512 22.2274 5.01866 21.1287L5.93488 16.8182Z" fill="#C6C3CD"></path>
<path d="M14.7382 18.6894C14.8161 18.3232 15.1711 18.0883 15.5313 18.1649L21.0741 19.343C21.4342 19.4196 21.6631 19.7786 21.5852 20.1448L20.669 24.4553C20.4355 25.554 19.3703 26.2586 18.2899 26.0289L14.0512 25.128C13.6911 25.0514 13.4622 24.6925 13.5401 24.3262L14.7382 18.6894Z" fill="#C6C3CD"></path>
<path fill-rule="evenodd" clip-rule="evenodd" d="M23.973 13.7212L23.5501 15.7107C23.3165 16.8094 22.2514 17.5139 21.1709 17.2843L7.47686 14.3735C6.39643 14.1439 5.70989 13.067 5.94344 11.9683L6.36631 9.9788C6.59985 8.88006 7.66504 8.17552 8.74547 8.40517L9.04391 8.4686C8.93829 8.02165 8.92715 7.55044 9.02739 7.07887C9.41663 5.24763 11.3379 4.10443 13.3187 4.52546C14.7655 4.83297 15.8438 5.8899 16.1684 7.15099C16.9779 6.13097 18.393 5.60402 19.8397 5.91153C21.8205 6.33256 23.1107 8.15839 22.7215 9.98963C22.6212 10.4612 22.4194 10.8871 22.1411 11.2525L22.4395 11.3159C23.52 11.5456 24.2065 12.6225 23.973 13.7212ZM12.332 9.16751L14.6144 9.65264C14.6144 9.65264 15.5042 7.06934 12.8958 6.51491C11.8158 6.28535 11.1024 6.93638 10.9837 7.49469C10.865 8.053 11.252 8.93795 12.332 9.16751ZM18.853 10.5536L16.5707 10.0685C16.5707 10.0685 16.8084 7.34656 19.4168 7.90099C20.4968 8.13055 20.8838 9.0155 20.7652 9.57381C20.6465 10.1321 19.933 10.7832 18.853 10.5536Z" fill="#C6C3CD"></path>
</g>
<defs>
<clipPath id="clip0_2372_98">
<rect width="24" height="24" fill="white" transform="translate(5.25732 0.767273) rotate(12)"></rect>
</clipPath>
</defs>
</svg>
