<svg width="16" height="16" viewBox="0 0 16 16" fill="none" xmlns="http://www.w3.org/2000/svg">
<path fill-rule="evenodd" clip-rule="evenodd" d="M0 6.4C0 4.15979 2.07867e-07 3.03968 0.435974 2.18404C0.819468 1.43139 1.43139 0.819468 2.18404 0.435974C3.03968 2.08616e-07 4.15979 0 6.4 0H9.6C11.8402 0 12.9603 2.08616e-07 13.816 0.435974C14.5686 0.819468 15.1805 1.43139 15.564 2.18404C16 3.03968 16 4.15979 16 6.4V9.6C16 11.8402 16 12.9603 15.564 13.816C15.1805 14.5686 14.5686 15.1805 13.816 15.564C12.9603 16 11.8402 16 9.6 16H6.4C4.15979 16 3.03968 16 2.18404 15.564C1.43139 15.1805 0.819468 14.5686 0.435974 13.816C2.07867e-07 12.9603 0 11.8402 0 9.6V6.4ZM12.2107 11.6463C11.9246 11.9072 11.3826 12.0377 10.5848 12.0377H9.82619V12.9632C9.82619 13.0472 9.79251 13.1278 9.73258 13.1872C9.67264 13.2466 9.59135 13.28 9.50659 13.28H8.8986C8.81384 13.28 8.73255 13.2466 8.67262 13.1872C8.61268 13.1278 8.57901 13.0472 8.57901 12.9632V12.0377H5.45169C4.63571 12.0377 4.08302 11.9072 3.79374 11.6463C3.50458 11.3855 3.36 10.8942 3.36 10.1723V9.95398L5.07718 9.63542V10.5636H10.8954V8.76196H5.77128C4.96139 8.76196 4.41326 8.63008 4.12715 8.36608C3.84091 8.10221 3.69773 7.61243 3.69773 6.89648V6.01397C3.69773 5.30419 3.84091 4.81742 4.12715 4.55355C4.41326 4.28967 4.96139 4.15767 5.77116 4.15767H6.08479V3.0368C6.08479 2.95278 6.11846 2.8722 6.1784 2.81279C6.23833 2.75338 6.31962 2.72 6.40438 2.72H7.01237C7.09713 2.72 7.17842 2.75338 7.23836 2.81279C7.29829 2.8722 7.33196 2.95278 7.33196 3.0368V4.15767H10.4661C11.2639 4.15767 11.8103 4.28351 12.1057 4.53532C12.4011 4.787 12.5487 5.2314 12.5487 5.86839V6.05948L10.8772 6.41424V5.56806H5.4333V7.23327H8.00907H10.5848C11.3947 7.23327 11.9398 7.36213 12.2198 7.61984C12.5 7.87781 12.64 8.36759 12.64 9.08944V10.1723C12.64 10.8942 12.4969 11.3855 12.2107 11.6463Z" fill="#34414D"></path>
</svg>
