<svg width="29" height="30" viewBox="0 0 29 30" fill="none" xmlns="http://www.w3.org/2000/svg">
<g clip-path="url('#clip0_1567_256')">
<path d="M5.93488 16.8183C6.01273 16.4521 6.3678 16.2172 6.72794 16.2938L12.2708 17.472C12.6309 17.5485 12.8598 17.9075 12.7819 18.2737L11.5838 23.9105C11.5059 24.2768 11.1509 24.5116 10.7907 24.4351L6.55209 23.5341C5.47166 23.3044 4.78512 22.2276 5.01866 21.1288L5.93488 16.8183Z" fill="white"></path>
<path d="M14.7382 18.6895C14.8161 18.3233 15.1711 18.0885 15.5313 18.165L21.0741 19.3432C21.4342 19.4197 21.6631 19.7787 21.5852 20.1449L20.669 24.4554C20.4355 25.5542 19.3703 26.2587 18.2899 26.029L14.0512 25.1281C13.6911 25.0515 13.4622 24.6926 13.5401 24.3263L14.7382 18.6895Z" fill="white"></path>
<path fill-rule="evenodd" clip-rule="evenodd" d="M23.973 13.7213L23.5501 15.7108C23.3165 16.8095 22.2514 17.5141 21.1709 17.2844L7.47686 14.3737C6.39643 14.144 5.70989 13.0671 5.94344 11.9684L6.36631 9.97892C6.59985 8.88018 7.66504 8.17564 8.74547 8.40529L9.04391 8.46873C8.93829 8.02177 8.92715 7.55056 9.02739 7.07899C9.41663 5.24775 11.3379 4.10455 13.3187 4.52558C14.7655 4.83309 15.8438 5.89002 16.1684 7.15111C16.9779 6.13109 18.393 5.60414 19.8397 5.91166C21.8205 6.33269 23.1107 8.15851 22.7215 9.98975C22.6212 10.4613 22.4194 10.8873 22.1411 11.2526L22.4395 11.3161C23.52 11.5457 24.2065 12.6226 23.973 13.7213ZM12.332 9.16764L14.6144 9.65276C14.6144 9.65276 15.5042 7.06946 12.8958 6.51503C11.8158 6.28547 11.1024 6.9365 10.9837 7.49481C10.865 8.05312 11.252 8.93808 12.332 9.16764ZM18.853 10.5537L16.5707 10.0686C16.5707 10.0686 16.8084 7.34668 19.4168 7.90111C20.4968 8.13067 20.8838 9.01562 20.7652 9.57393C20.6465 10.1322 19.933 10.7833 18.853 10.5537Z" fill="white"></path>
</g>
<defs>
<clipPath id="clip0_1567_256">
<rect width="24" height="24" fill="white" transform="translate(5.25732 0.767334) rotate(12)"></rect>
</clipPath>
</defs>
</svg>
