<svg width="24" height="24" viewBox="0 0 24 24" fill="none" xmlns="http://www.w3.org/2000/svg">
<rect y="-0.000854492" width="24" height="24" rx="12" fill="#20A200"></rect>
<path d="M10.8028 19.1991C9.77395 19.0246 8.98459 18.6246 8.4347 17.9991C7.90255 17.3737 7.63647 16.5737 7.63647 15.5991V14.5955H10.4037V15.7519C10.4037 16.6391 10.9092 17.0828 11.9203 17.0828C12.9314 17.0828 13.4369 16.6246 13.4369 15.7082C13.4369 15.1409 13.2595 14.6319 12.9048 14.1809C12.55 13.7155 11.8937 13.1773 10.9358 12.5664C9.74734 11.7955 8.91364 11.0755 8.4347 10.4064C7.95576 9.73731 7.7163 8.98094 7.7163 8.13731C7.7163 7.19185 7.9735 6.41367 8.48792 5.80276C9.02007 5.19185 9.79169 4.79185 10.8028 4.60276V3.27185H13.1975V4.60276C14.2263 4.77731 15.0068 5.17731 15.5389 5.80276C16.0711 6.41367 16.3371 7.2064 16.3371 8.18094V8.61731H13.57V8.02822C13.57 7.1264 13.0822 6.67549 12.1065 6.67549C11.1309 6.67549 10.6431 7.11185 10.6431 7.98458C10.6431 8.50821 10.8205 8.99549 11.1753 9.4464C11.53 9.88276 12.1864 10.4137 13.1442 11.0391C14.3327 11.8246 15.1664 12.5591 15.6453 13.2428C16.1243 13.9119 16.3637 14.6828 16.3637 15.5555C16.3637 16.5446 16.0888 17.3591 15.5389 17.9991C15.0068 18.6246 14.2263 19.0246 13.1975 19.1991V20.7264H10.8028V19.1991Z" fill="white"></path>
</svg>
