<svg xmlns="http://www.w3.org/2000/svg" width="24" height="24" fill="none"><g clip-path="url('#clip0_1479_161')"><path fill="#26A17B" d="M12 24c6.627 0 12-5.372 12-12 0-6.627-5.373-12-12-12S0 5.373 0 12c0 6.628 5.373 12 12 12"/><path fill="#fff" d="M13.14 12.094v-.002c-.07.006-.436.027-1.247.027-.649 0-1.104-.018-1.265-.027v.002c-2.496-.113-4.357-.557-4.357-1.09s1.863-.98 4.357-1.092v1.74c.163.011.63.04 1.277.04.775 0 1.163-.034 1.235-.04V9.913c2.49.114 4.347.559 4.347 1.09 0 .533-1.858.977-4.347 1.092zm0-2.36V8.178h3.475V5.805h-9.46v2.373h3.475v1.556c-2.825.133-4.947.705-4.947 1.392s2.124 1.26 4.947 1.394v4.987h2.512V12.52c2.819-.133 4.938-.705 4.938-1.392s-2.12-1.26-4.938-1.393"/></g><defs><clipPath id="clip0_1479_161"><path fill="#fff" d="M0 0h24v24H0z"/></clipPath></defs></svg>