<svg xmlns="http://www.w3.org/2000/svg" width="29" height="30" fill="none"><g fill="#C6C3CD" clip-path="url('#clip0_2372_98')"><path d="M5.935 16.818a.67.67 0 0 1 .793-.524l5.543 1.178c.36.076.589.435.51.802l-1.197 5.636a.67.67 0 0 1-.793.525l-4.239-.901c-1.08-.23-1.767-1.307-1.533-2.405zM14.738 18.69a.67.67 0 0 1 .793-.525l5.543 1.178c.36.077.59.436.511.802l-.916 4.31c-.233 1.099-1.299 1.804-2.38 1.574l-4.238-.901a.67.67 0 0 1-.51-.802z"/><path fill-rule="evenodd" d="m23.973 13.721-.423 1.99c-.233 1.098-1.299 1.803-2.38 1.573l-13.693-2.91c-1.08-.23-1.767-1.307-1.534-2.406l.423-1.99C6.6 8.88 7.665 8.177 8.746 8.406l.298.064a3.2 3.2 0 0 1-.017-1.39c.39-1.831 2.31-2.975 4.292-2.554 1.446.308 2.525 1.365 2.85 2.626.809-1.02 2.224-1.547 3.67-1.24 1.982.422 3.272 2.247 2.883 4.079-.1.471-.303.897-.58 1.262l.297.064c1.081.23 1.767 1.306 1.534 2.405M12.332 9.168l2.282.485s.89-2.584-1.718-3.138c-1.08-.23-1.794.421-1.912.98-.119.558.268 1.443 1.348 1.673m6.521 1.386-2.282-.486s.237-2.721 2.846-2.167c1.08.23 1.467 1.114 1.348 1.673s-.832 1.21-1.912.98" clip-rule="evenodd"/></g><defs><clipPath id="clip0_2372_98"><path fill="#fff" d="m5.257.767 23.476 4.99-4.99 23.476-23.476-4.99z"/></clipPath></defs></svg>