<svg xmlns="http://www.w3.org/2000/svg" width="24" height="24" fill="none"><path fill="#858D94" d="M7 22a3 3 0 0 1-3-3v-8c0-1.313.843-2.429 2.018-2.836C6.54 7.984 7 7.552 7 7V6q0-2.075 1.463-3.537Q9.926 1 12 1q2.075 0 3.537 1.463Q17 3.925 17 6v1c0 .552.46.984.982 1.164A3 3 0 0 1 20 11v8a3 3 0 0 1-3 3zm5-5q.825 0 1.412-.587Q14 15.825 14 15t-.588-1.412A1.93 1.93 0 0 0 12 13q-.825 0-1.412.588A1.93 1.93 0 0 0 10 15q0 .824.588 1.413Q11.175 17 12 17M9 7a1 1 0 0 0 1 1h4a1 1 0 0 0 1-1V6q0-1.25-.875-2.125A2.9 2.9 0 0 0 12 3q-1.25 0-2.125.875A2.9 2.9 0 0 0 9 6z"/></svg>