<svg xmlns="http://www.w3.org/2000/svg" width="152" height="32" fill="none"><path fill="#fff" fill-rule="evenodd" d="M0 12.8c0-4.48 0-6.72.872-8.432A8 8 0 0 1 4.368.872C6.08 0 8.32 0 12.8 0h6.4c4.48 0 6.72 0 8.432.872a8 8 0 0 1 3.496 3.496C32 6.08 32 8.32 32 12.8v6.4c0 4.48 0 6.72-.872 8.432a8 8 0 0 1-3.496 3.496C25.92 32 23.68 32 19.2 32h-6.4c-4.48 0-6.72 0-8.432-.872a8 8 0 0 1-3.496-3.496C0 25.92 0 23.68 0 19.2zm24.421 10.493q-.858.782-3.251.782h-1.518v1.851c0 .168-.067.33-.187.448a.64.64 0 0 1-.452.186h-1.216a.64.64 0 0 1-.452-.186.63.63 0 0 1-.187-.448v-1.85h-6.255q-2.448 0-3.316-.783t-.867-2.948v-.437l3.434-.637v1.856h11.637v-3.603H11.543q-2.43 0-3.289-.792-.859-.791-.859-2.939v-1.765q0-2.13.86-2.92.858-.793 3.287-.793h.628V6.074a.63.63 0 0 1 .187-.448.64.64 0 0 1 .452-.186h1.216c.17 0 .332.067.452.186a.63.63 0 0 1 .187.448v2.241h6.268q2.394 0 3.28.756.885.755.885 2.666v.382l-3.343.71v-1.693H10.867v3.33H21.17q2.43 0 3.27.774.84.773.84 2.939v2.166q0 2.165-.859 2.948M49.375 24.412l4.79-11.602 4.717 11.602h2.716l6.564-16.417H64.56l-4.206 11.45-4.565-11.45h-2.735l-4.602 11.45-4.282-11.45H40l6.64 16.417zm41.083 0V21.34H76.745v-4.038h7.866v-2.825h-7.866v-3.582h13.506v-2.9H72.727v16.416zm9.715 0V7.995h-3.961v16.417z" clip-rule="evenodd"/><path fill="#fff" d="M147.557 24.412q2.47 0 3.357-.815.887-.816.887-3.071V18.27q0-2.256-.868-3.062-.868-.805-3.376-.805h-10.639v-3.47h11.242v1.763l3.452-.739v-.398q0-1.99-.915-2.777t-3.385-.787h-6.335V5.66a.66.66 0 0 0-.66-.66h-1.255a.66.66 0 0 0-.66.66v2.335h-.786q-2.509 0-3.396.825-.886.825-.886 3.042v1.839q0 2.238.886 3.062.887.825 3.396.824h10.582v3.754h-12.016v-1.934l-3.546.664v.455q0 2.256.896 3.07.895.816 3.424.816h6.597v1.928a.66.66 0 0 0 .66.66h1.255a.66.66 0 0 0 .66-.66v-1.928zM121.941 24.412q2.47 0 3.357-.815.887-.816.887-3.071V18.27q0-2.256-.868-3.062-.867-.805-3.376-.805h-10.639v-3.47h11.242v1.763l3.452-.739v-.398q0-1.99-.915-2.777t-3.386-.787h-6.472V5.66a.663.663 0 0 0-.66-.66h-1.256a.657.657 0 0 0-.66.66v2.335H112q-2.51 0-3.395.825-.887.825-.887 3.042v1.839q0 2.238.887 3.062.885.825 3.395.824h10.582v3.754h-12.015v-1.934l-3.547.664v.455q0 2.256.896 3.07.896.816 3.424.816h6.458v1.928a.66.66 0 0 0 .66.66h1.256a.66.66 0 0 0 .66-.66v-1.928z"/></svg>