<svg xmlns="http://www.w3.org/2000/svg" width="16" height="16" fill="none"><path fill="#34414D" fill-rule="evenodd" d="M0 6.4c0-2.24 0-3.36.436-4.216A4 4 0 0 1 2.184.436C3.04 0 4.16 0 6.4 0h3.2c2.24 0 3.36 0 4.216.436a4 4 0 0 1 1.748 1.748C16 3.04 16 4.16 16 6.4v3.2c0 2.24 0 3.36-.436 4.216a4 4 0 0 1-1.748 1.748C12.96 16 11.84 16 9.6 16H6.4c-2.24 0-3.36 0-4.216-.436a4 4 0 0 1-1.748-1.748C0 12.96 0 11.84 0 9.6zm12.21 5.246q-.428.392-1.625.392h-.759v.925a.32.32 0 0 1-.093.224.32.32 0 0 1-.226.093h-.608a.32.32 0 0 1-.226-.093.32.32 0 0 1-.094-.224v-.925H5.452q-1.224 0-1.658-.392-.435-.39-.434-1.474v-.218l1.717-.319v.929h5.818V8.762H5.771q-1.215 0-1.644-.396-.43-.396-.43-1.47v-.882q0-1.065.43-1.46.429-.396 1.644-.396h.314V3.037c0-.084.033-.165.093-.224a.32.32 0 0 1 .226-.093h.608c.085 0 .166.033.226.093s.094.14.094.224v1.12h3.134q1.197 0 1.64.378t.443 1.333v.191l-1.672.355v-.846H5.433v1.665h5.152q1.215 0 1.635.387t.42 1.47v1.082q0 1.083-.43 1.474" clip-rule="evenodd"/></svg>